<svg width="444.266" height="444.266" xmlns="http://www.w3.org/2000/svg" xml:space="preserve" version="1.1">

 <g>
  <title>Layer 1</title>
  <path id="svg_1" stroke="#000000" stroke-width="0" stroke-linecap="round" stroke-linejoin="round" d="m367.20294,212.97565c-20.10098,0 -37.87957,9.96133 -48.5528,25.13267l-15.37329,-6.49253l0,-9.50082l48.15576,-19.70103l12.36367,-28.10372l5.68207,0l28.48683,33.35824c1.09901,1.28706 2.67153,1.95103 4.25511,1.95103c1.26391,0 2.53427,-0.42236 3.57801,-1.28797c2.34819,-1.94921 2.64942,-5.40711 0.67157,-7.72328l-22.45654,-26.29893l3.57156,0c3.07134,0 5.55863,-2.45332 5.55863,-5.48068c0,-3.02736 -2.48729,-5.48068 -5.55863,-5.48068l-8.35084,0l7.27394,-3.39977c3.44628,-1.61132 4.9322,-5.66053 3.32652,-9.07301l-4.1897,-8.90588c-1.12941,-2.39973 -3.55774,-3.94384 -6.24033,-3.96836l-77.10965,-0.68849c-0.02119,0 -0.04238,0 -0.06264,0c-1.92903,0 -3.77147,0.79022 -5.08697,2.18265c-0.14371,0.15078 -15.8947,16.23223 -44.95637,19.96535c-1.90047,-3.4797 -5.02156,-8.37907 -9.62489,-13.24665c-11.17806,-11.81971 -25.86596,-18.067 -42.47645,-18.067c-3.36153,0 -6.85386,0.25523 -10.37752,0.75934c-0.01842,0.00272 -0.03777,0.00545 -0.05619,0.00908c-0.81896,0.12353 -20.21521,3.09912 -47.06688,10.52538c-0.29295,0.01544 -0.71579,0.02997 -1.23443,0.02997c-3.08055,0 -10.559,-0.54135 -13.47282,-5.55789c-0.21004,-0.36241 -0.41363,-0.78023 -0.60156,-1.25436l12.84362,-2.29982c3.5863,-0.64308 5.96673,-4.03104 5.31543,-7.56705c-0.6513,-3.53692 -4.08929,-5.88124 -7.67467,-5.24089l-10.34897,1.85293c1.58357,-6.44439 5.18001,-15.2549 12.32866,-27.26627c1.48961,-2.50418 1.21785,-5.66325 -0.6817,-7.88405c-1.3459,-1.57499 -3.30533,-2.43515 -5.31359,-2.43515c-0.82265,0 -1.65174,0.14351 -2.45228,0.44143c-0.77014,0.28611 -19.05448,7.21735 -35.64285,24.31247c-10.61888,10.9432 -21.89183,27.60415 -25.42931,50.92113c0.94148,-1.80843 2.11051,-3.5669 3.5817,-5.20547c0,0 18.96972,12.20846 8.26148,29.88308l-12.56081,0c0.30124,3.59051 0.77106,7.29183 1.44171,11.1176c0.26163,1.49143 1.0161,2.85479 2.14552,3.87844l15.517,14.05776c-51.02259,-6.74776 -69.37418,25.902 -69.37418,25.902c-3.82674,5.0229 -1.90139,10.43728 4.27353,7.56251c-4.15009,7.96125 -6.50841,16.9725 -6.50841,26.52237c0,32.11205 26.49516,58.23567 59.06114,58.23567c32.56783,0 59.06298,-26.12453 59.06298,-58.23567c0,-2.38247 -0.16398,-4.7277 -0.44587,-7.03569l72.16823,0l-28.48867,-20.93814c0,0 -33.80686,3.21992 -57.9262,-22.65937c2.52414,-0.12535 5.27766,-0.20528 8.20437,-0.20528c19.55746,0 46.78314,3.47062 65.41755,20.0035c0.24044,0.21254 0.49562,0.40964 0.76369,0.58767l63.92517,42.4812c1.18192,0.78568 2.53519,1.16989 3.88109,1.16989c1.79361,0 3.57341,-0.68213 4.91562,-2.00734l25.75634,-25.39517l15.35486,6.48436c-0.32427,2.4624 -0.50851,4.96749 -0.50851,7.51437c0,32.11205 26.49516,58.23567 59.06114,58.23567c32.56783,0 59.06206,-26.12453 59.06206,-58.23567s-26.49423,-58.23567 -59.06206,-58.23567zm-63.92517,-14.11953l43.52295,-20.34593l-5.8829,13.36927l-37.64005,15.40023l0,-8.42358zm-227.21662,103.18654c-17.2406,0 -31.26615,-13.83069 -31.26615,-30.83044s14.02647,-30.83044 31.26615,-30.83044c0.72776,0 1.44723,0.03361 2.16302,0.08175l-12.93482,26.29348l25.00739,11.9605l11.95833,-24.31066c3.20492,4.83852 5.07407,10.60895 5.07407,16.80537c0.00092,16.99975 -14.02647,30.83044 -31.26799,30.83044zm291.14179,0c-15.81916,0 -28.92349,-11.64713 -30.9778,-26.7013l23.65504,9.99039l10.94407,-25.1908l-25.61539,-10.81695c5.65352,-5.52428 13.42583,-8.94312 21.99408,-8.94312c17.2406,0 31.26799,13.83069 31.26799,30.83044s-14.02739,30.83134 -31.26799,30.83134z"/>
  <g id="svg_2"/>
  <g id="svg_3"/>
  <g id="svg_4"/>
  <g id="svg_5"/>
  <g id="svg_6"/>
  <g id="svg_7"/>
  <g id="svg_8"/>
  <g id="svg_9"/>
  <g id="svg_10"/>
  <g id="svg_11"/>
  <g id="svg_12"/>
  <g id="svg_13"/>
  <g id="svg_14"/>
  <g id="svg_15"/>
  <g id="svg_16"/>
 </g>
</svg>