<svg width="1748.3530000000005" height="389.3379999999999" xmlns="http://www.w3.org/2000/svg" xml:space="preserve" version="1.1">
 <metadata id="metadata89">image/svg+xml</metadata>

 <g>
  <title>Layer 1</title>
  <g id="svg_1">
   <path fill="#033fa2" id="path5" d="m27.68824,3.78011c-15.93527,0 -28.85266,13.6995 -28.85266,30.59962l0,311.21756c0,16.89904 12.91738,30.59962 28.85266,30.59962l134.9124,0l0,-372.41572l-134.9124,0l0,-0.00108z"/>
   <path fill="none" stroke="#000000" stroke-width="16" stroke-miterlimit="10" id="path7" d="m1742.33562,350.51485c0,16.89904 -12.91738,30.59962 -28.85266,30.59962l-1676.69073,0c-15.93527,0 -28.85266,-13.6995 -28.85266,-30.59962l0,-311.21756c0,-16.90012 12.91738,-30.59962 28.85266,-30.59962l1676.69175,0c15.93425,0 28.85266,13.6995 28.85266,30.59962l0,311.21756l-0.00102,0z"/>
   <path fill="#ffffff" id="path17" d="m58.29259,318.73262l-5.84544,0c-10.24759,0 -18.58471,-8.84083 -18.58471,-19.70997l13.33266,0c0,3.07108 2.3563,5.56896 5.25204,5.56896l5.84544,0c2.42245,0 5.25204,-1.17338 5.25204,-4.47654c0,-0.94237 -0.18626,-1.82214 -1.05448,-2.97393l-23.74922,-22.11286l-0.2911,-0.35406c-3.04537,-3.69825 -4.58841,-7.93192 -4.58841,-12.58441c0,-10.61439 7.99003,-18.61863 18.58471,-18.61863l5.84544,0c10.24861,0 18.58471,8.84083 18.58471,19.71105l-13.33062,0c0,-3.07432 -2.3563,-5.57004 -5.25204,-5.57004l-5.84544,0c-2.42245,0 -5.25204,1.17122 -5.25204,4.47762c0,0.94129 0.18728,1.82106 1.05652,2.97609l23.74922,22.11286l0.29212,0.35406c3.04334,3.69609 4.58638,7.93084 4.58638,12.58225c-0.00204,10.61331 -7.99206,18.61755 -18.58776,18.61755zm76.69817,-75.26252l-15.77445,0l-12.60898,21.15213l0,-21.15213l-13.33368,0l0,75.26252l13.33368,0l0,-27.65052l3.58381,-6.01262l11.2919,33.66422l14.15202,0l-16.38719,-48.85339l15.7429,-26.41021z"/>
   <g id="g19">
    <polygon stroke="#000000" stroke-width="0.5" stroke-miterlimit="10" id="polygon21" points="85.08004156122206,59.36504795280189 90.49393414548285,59.37368187502034 86.11925279378647,62.75564472544738 87.78444547552044,68.21774342253411 83.399594612496,64.85089663637245 79.01576527459747,68.21774342253411 80.6809503330096,62.75564472544738 76.30627660463506,59.37368187502034 81.71914004044811,59.36504795280189 83.399594612496,53.90727196000989 "/>
    <polygon stroke="#000000" stroke-width="0.5" stroke-miterlimit="10" id="polygon23" points="111.04001384596359,66.76694584418783 116.45389880690254,66.77450387632052 112.07921745520616,70.15645906916689 113.74339623513606,75.61965280029108 109.35956689723753,72.25279069896806 104.97572231269532,75.61965280029108 106.63990109262522,70.15645906916689 102.26624888937658,66.77450387632052 107.6791047018678,66.76694584418783 109.35956689723753,61.309162193815155 "/>
    <polygon stroke="#000000" stroke-width="0.5" stroke-miterlimit="10" id="polygon25" points="130.01761032551076,86.99721725871586 135.4304737613238,87.00583969456329 131.05580003294926,90.3867381412756 132.72097746803956,95.84990889965775 128.33715575346287,92.48306211349609 123.95231251376026,95.84990889965775 125.61748994885056,90.3867381412756 121.24282384379785,87.00583969456329 126.65670118141497,86.99721725871586 128.33715575346287,81.53944509471421 "/>
    <polygon stroke="#000000" stroke-width="0.5" stroke-miterlimit="10" id="polygon27" points="137.0233821054171,114.48149188013667 142.43626078787383,114.49012963114546 138.0615870594993,117.87210779673387 139.7267644945896,123.33419117865924 135.34292753336922,119.9673367349169 130.95808429366662,123.33419117865924 132.62326172875692,117.87210779673387 128.2485956237042,114.49012963114546 133.66148192948276,114.48149188013667 135.34292753336922,109.02479177743044 "/>
    <polygon stroke="#000000" stroke-width="0.5" stroke-miterlimit="10" id="polygon29" points="130.05830361746666,142.0402671040083 135.47118229992338,142.04888953985574 131.0965238181925,145.43086004786346 132.7617012532828,150.89296640253087 128.37786429206244,147.52609664362717 123.99302105235984,150.89296640253087 125.65819848745014,145.43086004786346 121.28353238239742,142.04888953985574 126.69740972001455,142.0402671040083 128.37786429206244,136.5824796248453 "/>
    <polygon stroke="#000000" stroke-width="0.5" stroke-miterlimit="10" id="polygon31" points="110.99624073198629,162.22517501057882 116.41012569292525,162.23381276158761 112.0354519645507,165.61469589313856 113.70063702296284,171.07788962426275 109.31579378326023,167.7110351805204 104.93195682203987,171.07788962426275 106.597141880452,165.61469589313856 102.22247577539929,162.23381276158761 107.63533921121234,162.22517501057882 109.31579378326023,156.76740284657717 "/>
    <polygon stroke="#000000" stroke-width="0.5" stroke-miterlimit="10" id="polygon33" points="85.00676619174283,169.54180956986602 90.41962962755588,169.5493752595794 86.04597742430724,172.93133045242575 87.71014095759347,178.39450886838858 83.32631161969493,175.02765442464624 78.9424822817964,178.39450886838858 80.60665343840446,172.93133045242575 76.23197971002992,169.5493752595794 81.64585704764704,169.54180956986602 83.32631161969493,164.08403740586436 "/>
    <polygon stroke="#000000" stroke-width="0.5" stroke-miterlimit="10" id="polygon35" points="59.05392933623898,162.22949388608322 64.46678896039111,162.2370595757966 60.093136757142474,165.61901476864296 61.75730791375054,171.08219318460579 57.373478575852005,167.71533874086344 52.98965304961439,171.08219318460579 54.65381658290062,165.61901476864296 50.27915047784791,162.2370595757966 55.69302400380411,162.22949388608322 57.373478575852005,156.77172172208157 "/>
    <polygon stroke="#000000" stroke-width="0.5" stroke-miterlimit="10" id="polygon37" points="40.0743126764055,142.0812811061387 45.48717611221855,142.08990354198613 41.11352772063083,145.4718587348325 42.77769506557797,150.93398040466127 38.39386191601852,147.56712596091893 34.01003257811999,150.93398040466127 35.6741922997453,145.4718587348325 31.299528100523048,142.08990354198613 36.71341115563155,142.0812811061387 38.39386191601852,136.62350894213705 "/>
    <polygon stroke="#000000" stroke-width="0.5" stroke-miterlimit="10" id="polygon39" points="33.14079855251339,114.51819466434335 38.55366198832644,114.52684007293283 34.17899588327373,117.90879526577919 35.84417331836403,123.37197368174202 31.460347792126413,120.00404717670426 27.07550074076289,123.37197368174202 28.740681987514108,117.90879526577919 24.36601397663094,114.52684007293283 29.77887741244399,114.51819466434335 31.460347792126413,109.06149456163712 "/>
    <polygon stroke="#000000" stroke-width="0.5" stroke-miterlimit="10" id="polygon41" points="40.00306129887349,86.9194928147981 45.41592473468654,86.92812290822621 41.04125481797291,90.31009341623394 42.70644749970688,95.77219211332067 38.322610538486515,92.40533001199765 33.93776348712299,95.77219211332067 35.60294854553513,90.31009341623394 31.2282786288215,86.92812290822621 36.64114206463455,86.9194928147981 38.322610538486515,81.46172065079645 "/>
    <polygon stroke="#000000" stroke-width="0.5" stroke-miterlimit="10" id="polygon43" points="59.0712304651438,66.72915568352437 64.48409390095685,66.73779343453316 60.10942779590414,70.11976394254089 61.77460523099444,75.58293470092303 57.390775893095906,72.2150005383046 53.0059326533933,75.58293470092303 54.67111771180544,70.11976394254089 50.29645541841364,66.73779343453316 55.70931123090486,66.72915568352437 57.390775893095906,61.272463238398814 "/>
   </g>
   <g id="g45">
    <polygon fill="#ffc200" stroke="#000000" stroke-width="0.5" stroke-miterlimit="10" id="polygon47" points="84.5029332283375,58.75299284408675 89.91579666415055,58.76162293751486 85.54113055909784,62.142513726646484 87.20630799418814,67.60568831381897 82.82248627961144,64.23883387007663 78.437635416587,67.60568831381897 80.10282047499913,62.142513726646484 75.72814674662459,58.76162293751486 81.14202408424171,58.75299284408675 82.82248627961144,53.29521302250441 "/>
    <polygon fill="#ffc200" stroke="#000000" stroke-width="0.5" stroke-miterlimit="10" id="polygon49" points="110.46289788975719,66.15380335901591 115.87576894889207,66.1624411100247 111.50109522051753,69.54441927561311 113.16628027892966,75.00651031511916 108.78245094103113,71.63964821379614 104.39758483136302,75.00651031511916 106.06278513641882,69.54441927561311 101.68811903136611,66.1624411100247 107.10199636898324,66.15380335901591 108.78245094103113,60.697110913890356 "/>
    <polygon fill="#ffc200" stroke="#000000" stroke-width="0.5" stroke-miterlimit="10" id="polygon51" points="129.43947284417845,86.38407477354394 134.85334255847374,86.39271252455273 130.47869932338654,89.77467537497978 132.14387675847684,95.23784613336193 127.75901064880873,91.86991962832417 123.37519655755386,95.23784613336193 125.040381615966,89.77467537497978 120.66570788759145,86.39271252455273 126.07857894672634,86.38407477354394 127.75901064880873,80.92737467083771 "/>
    <polygon fill="#ffc200" stroke="#000000" stroke-width="0.5" stroke-miterlimit="10" id="polygon53" points="136.44525987072848,113.86943677142153 141.85912958502377,113.878082180011 137.4844711032929,117.25895765398127 139.14862701325728,122.7221360699441 134.76480529868059,119.35527396862108 130.38096833746022,122.7221360699441 132.04513949406828,117.25895765398127 127.67148729081964,113.878082180011 133.0843507266327,113.86943677142153 134.76480529868059,108.41166460741988 "/>
    <polygon fill="#ffc200" stroke="#000000" stroke-width="0.5" stroke-miterlimit="10" id="polygon55" points="129.48018138277803,141.42821199529317 134.894066343717,141.43574705468382 130.51939261534244,144.8177328778529 132.1845852970764,150.28091129381573 127.80074833585604,146.9140568500734 123.41590509615344,150.28091129381573 125.08108253124374,144.8177328778529 120.7064316728347,141.43574705468382 126.11928748532591,141.42821199529317 127.80074833585604,135.9704092009688 "/>
    <polygon fill="#ffc200" stroke="#000000" stroke-width="0.5" stroke-miterlimit="10" id="polygon57" points="110.41912477577989,161.61204784056827 115.83199583491478,161.6206702764157 111.45732972986207,165.00264078442342 113.12250716495237,170.46474713909083 108.73867782705383,167.09790801050985 104.3538269640294,170.46474713909083 106.01901964576336,165.00264078442342 101.64434591738882,161.6206702764157 107.05822325500594,161.61204784056827 108.73867782705383,156.15534773786203 "/>
    <polygon fill="#ffc200" stroke="#000000" stroke-width="0.5" stroke-miterlimit="10" id="polygon59" points="84.4296426122146,168.9286670846941 89.84251367134948,168.9373048357029 85.46783994297493,172.31927534371061 87.13302500138707,177.7813510680553 82.74919566348854,174.41451193947432 78.36435242378593,177.7813510680553 80.02953748219807,172.31927534371061 75.65486375382352,168.9373048357029 81.06772718963657,168.9286670846941 82.74919566348854,163.47089492069244 "/>
    <polygon fill="#ffc200" stroke="#000000" stroke-width="0.5" stroke-miterlimit="10" id="polygon61" points="58.47681338003258,161.61636671607266 63.88967681584563,161.62501978224282 59.51501452245384,165.00695965992782 61.18018814588322,170.46906601459523 56.796362619645606,167.1022115708529 52.411519379943,170.46906601459523 54.07670443835514,165.00695965992782 49.702038333302426,161.62501978224282 55.114890334132724,161.61636671607266 56.796362619645606,156.15966661336643 "/>
    <polygon fill="#ffc200" stroke="#000000" stroke-width="0.5" stroke-miterlimit="10" id="polygon63" points="39.4971967201991,141.4692106822622 44.91006015601215,141.47677637197557 40.53539405095944,144.8587468799833 42.200579109371574,150.32190998078477 37.81674214815121,146.9550708522038 33.4318989084486,150.32190998078477 35.09708015519982,144.8587468799833 30.722415955977567,141.47677637197557 36.13527748596016,141.4692106822622 37.81674214815121,136.01143851826055 "/>
    <polygon fill="#ffc200" stroke="#000000" stroke-width="0.5" stroke-miterlimit="10" id="polygon65" points="32.562664882842,113.9061472132089 37.97654603212004,113.914777306637 33.60187992706733,117.29674015706405 35.26604346035356,122.75883885415078 30.882214122455025,119.39198441040844 26.49838669038695,122.75883885415078 28.16255022367318,117.29674015706405 23.788901832085457,113.914777306637 29.20176145623759,113.9061472132089 30.882214122455025,108.44836739162656 "/>
    <polygon fill="#ffc200" stroke="#000000" stroke-width="0.5" stroke-miterlimit="10" id="polygon67" points="39.4249276292021,86.30743770608296 44.83880877848014,86.31498808063498 40.46414648508835,89.6969585886427 42.12932773183957,95.16012934702485 37.74447686881513,91.79328256086319 33.36065134257751,95.16012934702485 35.02583258932873,89.6969585886427 30.6511626726151,86.31498808063498 36.06402610842815,86.30743770608296 37.74447686881513,80.84965788450063 "/>
    <polygon fill="#ffc200" stroke="#000000" stroke-width="0.5" stroke-miterlimit="10" id="polygon69" points="58.49309679547241,66.11710823238991 63.90698175641137,66.1257459833987 59.53231565135866,69.50770117624506 61.19750070977079,74.96980753091248 56.812646035085436,71.60295308717014 52.4288166971869,74.96980753091248 54.09298404213405,69.50770117624506 49.71934327386816,66.1257459833987 55.13219527469846,66.11710823238991 56.812646035085436,60.659324582017234 "/>
   </g>
  </g>
 </g>
</svg>