<svg width="60" height="70" xmlns="http://www.w3.org/2000/svg" version="1.1">
 <!-- Generator: Sketch 51.3 (57544) - http://www.bohemiancoding.com/sketch -->
 <title>007 - Car Insurance</title>
 <desc>Created with Sketch.</desc>

 <g>
  <title>Layer 1</title>
  <g fill-rule="evenodd" fill="none" id="Page-1">
   <g fill-rule="nonzero" fill="#000000" id="007---Car-Insurance">
    <path id="Shape" d="m36.43646,27.11761l7.812,5.561c0.34716,0.24718 0.81284,0.24718 1.16,0l7.812,-5.561c1.62741,-1.15264 2.59858,-3.01977 2.608,-5.014l0,-11.832c0.00059,-0.39816 -0.23508,-0.75874 -0.6,-0.918l-10,-4.32c-0.25275,-0.109 -0.53925,-0.109 -0.792,0l-10,4.32c-0.36492,0.15926 -0.60059,0.51984 -0.6,0.918l0,11.832c0.00774,1.99273 0.97575,3.8595 2.6,5.014zm-0.608,-16.189l9,-3.887l9,3.887l0,11.175c-0.0073,1.34972 -0.6662,2.61277 -1.769,3.391l-7.231,5.142l-7.231,-5.148c-1.10147,-0.77666 -1.76026,-2.03728 -1.769,-3.385l0,-11.175z"/>
    <path id="Shape" d="m42.22846,24.39461c0.43204,0.32423 1.04349,0.24675 1.381,-0.175l8,-10c0.34518,-0.43133 0.27533,-1.06082 -0.156,-1.406c-0.43133,-0.34518 -1.06082,-0.27533 -1.406,0.156l-7.4,9.244l-3.219,-2.419c-0.28581,-0.21436 -0.66427,-0.25996 -0.99282,-0.11962c-0.32855,0.14035 -0.55727,0.4453 -0.6,0.8c-0.04273,0.35471 0.10701,0.70526 0.39282,0.91962l4,3z"/>
    <path id="Shape" d="m1.82846,53.59461l1,0l0,4c0,1.65685 1.34315,3 3,3l6,0c1.65685,0 3,-1.34315 3,-3l0,-4l24,0l0,4c0,1.65685 1.34315,3 3,3l6,0c1.65685,0 3,-1.34315 3,-3l0,-4l1,0c1.10457,0 2,-0.89543 2,-2l0,-15c0.00372,-1.44926 -0.62826,-2.82726 -1.729,-3.77l3.44,-2.448c2.68098,-1.90392 4.27819,-4.98477 4.289,-8.273l0,-14.461c0.00059,-0.39816 -0.23508,-0.75874 -0.6,-0.918l-14,-6.048c-0.25275,-0.109 -0.53925,-0.109 -0.792,0l-14.008,6.048c-0.36492,0.15926 -0.60059,0.51984 -0.6,0.918l0,3.952l-15.13,0c-2.12011,0.00072 -4.00928,1.33844 -4.714,3.338l-5.89,16.736c-2.44519,0.35986 -4.25917,2.45448 -4.266,4.926l0,15c0,1.10457 0.89543,2 2,2zm11,4c0,0.55228 -0.44772,1 -1,1l-6,0c-0.55228,0 -1,-0.44772 -1,-1l0,-4l8,0l0,4zm-4,-6l-2,0l0,-2l2,0l0,2zm40,6c0,0.55228 -0.44772,1 -1,1l-6,0c-0.55228,0 -1,-0.44772 -1,-1l0,-4l8,0l0,4zm-2,-6l-2,0l0,-2l2,0l0,2zm-15,-43.295l13,-5.616l13,5.616l0,13.8c-0.0099,2.64154 -1.29435,5.11583 -3.449,6.644l-9.551,6.803l-9.551,-6.8c-2.15437,-1.52796 -3.43878,-4.00182 -3.449,-6.643l0,-13.804zm15,29.295c0.55228,0 1,0.44772 1,1l0,2c0,0.55228 -0.44772,1 -1,1l-6,0c-0.55228,0 -1,-0.44772 -1,-1c0,-1.65685 1.34315,-3 3,-3l4,0zm-17,-20l0,2l-7,0l0,-2l7,0zm0,-2l-2,0l0,-2l2,0l0,2zm-17.957,0c0.42361,-1.19815 1.55617,-1.9994 2.827,-2l11.13,0l0,2l-3,0c-1.10457,0 -2,0.89543 -2,2l0,2c0,1.10457 0.89543,2 2,2l7,0l0,0.509c0.01081,3.28823 1.60802,6.36908 4.289,8.273l1.711,1.218l-29.588,0l5.631,-16zm-10.043,21c0,-1.65685 1.34315,-3 3,-3l33.81,0l3.022,2.152c-2.2426,0.53877 -3.8257,2.5416 -3.832,4.848c0,1.65685 1.34315,3 3,3l6,0c1.65685,0 3,-1.34315 3,-3l0,-2c-0.00326,-1.23526 -0.76335,-2.34225 -1.915,-2.789l2.476,-1.763c0.89684,0.5367 1.44387,1.50685 1.439,2.552l0.00003,15l-3.00003,0l0,-2c0,-1.10457 -0.89543,-2 -2,-2l-2,0c-1.10457,0 -2,0.89543 -2,2l0,2l-32,0l0,-2c0,-1.10457 -0.89543,-2 -2,-2l-2,0c-1.10457,0 -2,0.89543 -2,2l0,2l-3,0l0,-15z"/>
    <path id="Shape" d="m17.82846,15.59461l-1.711,0c-1.27126,0.00143 -2.40427,0.80214 -2.83,2l-3.754,10.668c-0.18336,0.52108 0.09042,1.09214 0.6115,1.2755c0.52108,0.18336 1.09214,-0.09042 1.2755,-0.6115l3.754,-10.664c0.14083,-0.40014 0.5188,-0.66788 0.943,-0.668l1.711,0c0.55228,0 1,-0.44772 1,-1c0,-0.55228 -0.44772,-1 -1,-1z"/>
    <path id="Shape" d="m6.82846,43.59461l6,0c1.65685,0 3,-1.34315 3,-3c-0.00331,-2.76005 -2.23995,-4.99669 -5,-5l-4,0c-1.65685,0 -3,1.34315 -3,3l0,2c0,1.65685 1.34315,3 3,3zm-1,-5c0,-0.55228 0.44772,-1 1,-1l4,0c1.65685,0 3,1.34315 3,3c0,0.55228 -0.44772,1 -1,1l-6,0c-0.55228,0 -1,-0.44772 -1,-1l0,-2z"/>
    <path id="Shape" d="m19.82846,49.59461l14,0c1.10457,0 2,-0.89543 2,-2l0,-4c0,-1.10457 -0.89543,-2 -2,-2l-14,0c-1.10457,0 -2,0.89543 -2,2l0,4c0,1.10457 0.89543,2 2,2zm0,-6l14,0l0,4l-14,0l0,-4z"/>
   </g>
  </g>
  <text transform="matrix(1.45795, 0, 0, 1.19144, -4.1054, -14.637)" font-style="normal" font-weight="normal" xml:space="preserve" text-anchor="start" font-family="'Racing Sans One'" font-size="12" id="svg_2" y="68.72041" x="14.78053" stroke-width="0" stroke="#000" fill="#000000">CI</text>
 </g>
</svg>