<svg width="512" height="512" xmlns="http://www.w3.org/2000/svg" xml:space="preserve" version="1.1">

 <g>
  <title>Layer 1</title>
  <g id="svg_1" transform="matrix(-0.762392, 0, 0, 0.77925, 455.506, 63.512)">
   <g id="svg_2" xmlns="http://www.w3.org/2000/svg">
    <g id="svg_3">
     <path id="svg_4" data-original="#000000" fill="#000000" d="m329.39,125.66619l-54.243,-100.173l-76.729,0l0,33.391l56.836,0l43.88,81.035l-43.134,30.269l-176.974,-44.522l-1.113,0l0,50.087c41.035,0 81.112,14.35 112.85,40.408c27.738,22.774 48.024,53.502 58.059,87.592l14.355,0c10.035,-34.09 30.32,-64.818 58.06,-87.592c31.738,-26.057 71.816,-40.408 112.85,-40.408l0,-50.087l-104.697,0z"/>
    </g>
   </g>
   <g id="svg_5" xmlns="http://www.w3.org/2000/svg">
    <g id="svg_6">
     <path id="svg_7" data-original="#000000" fill="#000000" d="m77.913,275.92719c-43.03,0 -77.913,34.883 -77.913,77.913s34.883,77.913 77.913,77.913c43.03,0 77.913,-34.883 77.913,-77.913s-34.883,-77.913 -77.913,-77.913zm0,94.609c-9.22,0 -16.696,-7.475 -16.696,-16.696s7.475,-16.696 16.696,-16.696c9.22,0 16.696,7.475 16.696,16.696s-7.476,16.696 -16.696,16.696z"/>
    </g>
   </g>
   <g id="svg_8" xmlns="http://www.w3.org/2000/svg">
    <g id="svg_9">
     <path id="svg_10" data-original="#000000" fill="#000000" d="m434.087,275.92719c-43.03,0 -77.913,34.883 -77.913,77.913s34.883,77.913 77.913,77.913c43.03,0 77.913,-34.883 77.913,-77.913s-34.883,-77.913 -77.913,-77.913zm0,94.609c-9.22,0 -16.696,-7.475 -16.696,-16.696s7.475,-16.696 16.696,-16.696c9.22,0 16.696,7.475 16.696,16.696s-7.476,16.696 -16.696,16.696z"/>
    </g>
   </g>
   <g id="svg_11" xmlns="http://www.w3.org/2000/svg">
    <g id="svg_12">
     <path id="svg_13" data-original="#000000" fill="#000000" d="m434.087,209.14519c-1.099,0 -2.194,0.014 -3.287,0.039c-0.639,0.014 -1.276,0.04 -1.912,0.063c-0.425,0.016 -0.852,0.026 -1.277,0.046c-0.925,0.04 -1.848,0.095 -2.768,0.154c-0.104,0.007 -0.207,0.011 -0.311,0.019c-55.446,3.632 -102.462,38.632 -123.434,87.382c-0.056,0.129 -0.11,0.258 -0.166,0.388c-0.333,0.78 -0.661,1.564 -0.981,2.352c-0.103,0.255 -0.205,0.51 -0.307,0.766c-0.273,0.683 -0.543,1.369 -0.806,2.059c-0.139,0.366 -0.276,0.733 -0.413,1.101c-0.223,0.598 -0.444,1.195 -0.659,1.796c-0.165,0.463 -0.325,0.928 -0.486,1.394c-0.181,0.524 -0.363,1.046 -0.538,1.574c-0.184,0.551 -0.359,1.105 -0.536,1.66c-0.145,0.452 -0.291,0.904 -0.431,1.357c-0.197,0.639 -0.385,1.28 -0.573,1.923c-0.112,0.384 -0.229,0.766 -0.338,1.152c-0.208,0.735 -0.407,1.473 -0.604,2.213c-0.08,0.301 -0.165,0.599 -0.243,0.9c-0.23,0.889 -0.451,1.782 -0.664,2.677c-0.038,0.159 -0.079,0.316 -0.117,0.475c-0.739,3.138 -1.374,6.315 -1.904,9.529c0.278,-1.691 0.58,-3.371 0.916,-5.04l-2.54,12.025l-67.414,0l-2.54,-12.025c0.336,1.668 0.638,3.35 0.916,5.04c-0.531,-3.213 -1.165,-6.39 -1.904,-9.529c-0.038,-0.159 -0.079,-0.316 -0.117,-0.475c-0.214,-0.896 -0.434,-1.788 -0.664,-2.677c-0.078,-0.302 -0.162,-0.6 -0.243,-0.9c-0.197,-0.74 -0.395,-1.478 -0.604,-2.213c-0.109,-0.386 -0.226,-0.768 -0.338,-1.152c-0.188,-0.642 -0.376,-1.283 -0.573,-1.923c-0.14,-0.453 -0.287,-0.905 -0.431,-1.357c-0.177,-0.554 -0.354,-1.109 -0.536,-1.66c-0.175,-0.528 -0.357,-1.05 -0.538,-1.574c-0.16,-0.465 -0.321,-0.931 -0.486,-1.394c-0.215,-0.601 -0.436,-1.199 -0.659,-1.796c-0.137,-0.367 -0.273,-0.735 -0.413,-1.101c-0.263,-0.689 -0.533,-1.375 -0.806,-2.059c-0.102,-0.255 -0.204,-0.511 -0.307,-0.766c-0.319,-0.788 -0.648,-1.572 -0.981,-2.352c-0.056,-0.129 -0.11,-0.258 -0.166,-0.388c-20.972,-48.75 -67.988,-83.75 -123.434,-87.382c-0.104,-0.008 -0.207,-0.012 -0.311,-0.019c-0.92,-0.059 -1.843,-0.114 -2.768,-0.154c-0.425,-0.02 -0.852,-0.03 -1.277,-0.046c-0.637,-0.023 -1.273,-0.049 -1.912,-0.063c-1.093,-0.025 -2.189,-0.039 -3.287,-0.039c-25.434,0 -50.451,6.696 -72.348,19.362l16.72,28.905c16.82,-9.732 36.056,-14.876 55.627,-14.876c61.373,0 111.304,49.93 111.304,111.304l0,16.696l133.565,0l0,-16.696c0,-61.374 49.931,-111.304 111.304,-111.304c19.571,0 38.806,5.143 55.628,14.875l16.72,-28.904c-21.896,-12.667 -46.914,-19.362 -72.348,-19.362z"/>
    </g>
   </g>
   <g id="svg_14" xmlns="http://www.w3.org/2000/svg"/>
   <g id="svg_15" xmlns="http://www.w3.org/2000/svg"/>
   <g id="svg_16" xmlns="http://www.w3.org/2000/svg"/>
   <g id="svg_17" xmlns="http://www.w3.org/2000/svg"/>
   <g id="svg_18" xmlns="http://www.w3.org/2000/svg"/>
   <g id="svg_19" xmlns="http://www.w3.org/2000/svg"/>
   <g id="svg_20" xmlns="http://www.w3.org/2000/svg"/>
   <g id="svg_21" xmlns="http://www.w3.org/2000/svg"/>
   <g id="svg_22" xmlns="http://www.w3.org/2000/svg"/>
   <g id="svg_23" xmlns="http://www.w3.org/2000/svg"/>
   <g id="svg_24" xmlns="http://www.w3.org/2000/svg"/>
   <g id="svg_25" xmlns="http://www.w3.org/2000/svg"/>
   <g id="svg_26" xmlns="http://www.w3.org/2000/svg"/>
   <g id="svg_27" xmlns="http://www.w3.org/2000/svg"/>
   <g id="svg_28" xmlns="http://www.w3.org/2000/svg"/>
  </g>
 </g>
</svg>