<svg width="512" height="512" xmlns="http://www.w3.org/2000/svg" xml:space="preserve" version="1.1">

 <g>
  <title>Layer 1</title>
  <g id="svg_1">
   <g id="svg_2">
    <path id="svg_3" d="m392.533,309.667c-23.526,0 -42.667,19.14 -42.667,42.667c0,23.526 19.14,42.667 42.667,42.667c23.526,0 42.667,-19.14 42.667,-42.667c0,-23.527 -19.14,-42.667 -42.667,-42.667zm0,68.266c-14.114,0 -25.6,-11.486 -25.6,-25.6c0,-14.114 11.486,-25.6 25.6,-25.6c14.114,0 25.6,11.486 25.6,25.6c0,14.114 -11.486,25.6 -25.6,25.6z"/>
   </g>
  </g>
  <g id="svg_4">
   <g id="svg_5">
    <path id="svg_6" d="m119.467,309.667c-23.526,0 -42.667,19.14 -42.667,42.667c0,23.526 19.14,42.666 42.667,42.666s42.667,-19.14 42.667,-42.667c-0.001,-23.526 -19.141,-42.666 -42.667,-42.666zm0,68.266c-14.114,0 -25.6,-11.486 -25.6,-25.6c0,-14.114 11.486,-25.6 25.6,-25.6s25.6,11.486 25.6,25.6c0,14.114 -11.486,25.6 -25.6,25.6z"/>
   </g>
  </g>
  <g id="svg_7">
   <g id="svg_8">
    <path id="svg_9" d="m509.5,303.634l-6.033,-6.033l0,-5l0,-8.533l0,-17.068l0,-8.533l0,-110.934c0,-4.71 -3.814,-8.533 -8.533,-8.533l-384,0c-2.782,0 -5.393,1.357 -6.989,3.644l-59.068,84.378c-9.873,8.192 -19.251,17.894 -26.069,31.445l-6.443,17.067c-1.749,6.537 -3.063,13.688 -3.635,21.862l-6.23,6.238c-1.604,1.596 -2.5,3.772 -2.5,6.033l0,17.067c0,2.261 0.896,4.437 2.5,6.033l6.033,6.033l0,13.534c0,4.71 3.814,8.533 8.533,8.533l34.134,0c4.719,0 8.533,-3.823 8.533,-8.533c0,-32.939 26.803,-59.733 59.733,-59.733s59.733,26.795 59.733,59.733c0,4.71 3.814,8.533 8.533,8.533l136.533,0c4.719,0 8.533,-3.823 8.533,-8.533c0,-32.939 26.803,-59.733 59.733,-59.733c32.93,0 59.733,26.795 59.733,59.733c0,4.71 3.814,8.533 8.533,8.533l34.133,0c4.719,0 8.533,-3.823 8.533,-8.533l0,-13.534l6.033,-6.033c1.604,-1.596 2.5,-3.772 2.5,-6.033l0,-17.067c0.004,-2.262 -0.892,-4.438 -2.496,-6.033zm-321.767,-87.834c0,4.71 -3.814,8.533 -8.533,8.533l-93.867,0c-3.149,0 -6.042,-1.732 -7.526,-4.506c-1.485,-2.773 -1.314,-6.144 0.427,-8.755l34.133,-51.2c1.587,-2.381 4.25,-3.806 7.1,-3.806l59.733,0c4.719,0 8.533,3.823 8.533,8.533l0,51.201z"/>
   </g>
  </g>
  <g id="svg_10"/>
  <g id="svg_11"/>
  <g id="svg_12"/>
  <g id="svg_13"/>
  <g id="svg_14"/>
  <g id="svg_15"/>
  <g id="svg_16"/>
  <g id="svg_17"/>
  <g id="svg_18"/>
  <g id="svg_19"/>
  <g id="svg_20"/>
  <g id="svg_21"/>
  <g id="svg_22"/>
  <g id="svg_23"/>
  <g id="svg_24"/>
 </g>
</svg>